PathFileType	4	(X/Y/Z)	C:\Github\FootballMatch-and-Movement-Analysis\output\test Exam_2026-03-06_135002_tvc2_Sports2D\test Exam_2026-03-06_135002_tvc2_Sports2D_m_person00.trc
DataRate	CameraRate	NumFrames	NumMarkers	Units	OrigDataRate	OrigDataStartFrame	OrigNumFrames
30.0	30.0	6	22	m	30.0	64	516
Frame#	Time	Hip			RHip			RKnee			RAnkle			RBigToe			RSmallToe			RHeel			LHip			LKnee			LAnkle			LBigToe			LSmallToe			LHeel			Neck			Head			Nose			RShoulder			RElbow			RWrist			LShoulder			LElbow			LWrist			
		X1	Y1	Z1	X2	Y2	Z2	X3	Y3	Z3	X4	Y4	Z4	X5	Y5	Z5	X6	Y6	Z6	X7	Y7	Z7	X8	Y8	Z8	X9	Y9	Z9	X10	Y10	Z10	X11	Y11	Z11	X12	Y12	Z12	X13	Y13	Z13	X14	Y14	Z14	X15	Y15	Z15	X16	Y16	Z16	X17	Y17	Z17	X18	Y18	Z18	X19	Y19	Z19	X20	Y20	Z20	X21	Y21	Z21	X22	Y22	Z22
64	2.13747572815534	0.877469059915801	0.860590757238667	0.0301	0.7830521152584133	0.8502341585196369	0.0301	0.748737785886706	0.4946224611334415	0.129	0.7237755086241603	0.15394996191333749	0.023	0.6816917506645441	0.04795127404516837	0.2179	0.6490697663293905	0.06277512741043802	0.1804	0.741254179817158	0.1015800287431563	-0.0119	0.9741672843813235	0.8401070593832631	0.0301	0.9739065400239124	0.4783270235034013	0.129	0.9803170341842202	0.15798342941823507	0.023	0.9871227585251883	0.04242990643020716	0.2179	1.0445149884983027	0.056579795766957826	0.1804	0.9683089553581176	0.11376819716929686	-0.0119	0.9104980407909524	1.466558148961531	0.0008	0.8700608750687148	1.703300799322313	0.0655	0.7897782578640123	1.5765630506350752	0.1076	0.7762860374238059	1.3670185941339321	-0.01275	0.6092095164089737	1.238029766355434	0.0702	0.39890067782099214	1.3062005363694948	0.1076	1.0847002069246476	1.3746201041932085	-0.01275	1.249592702461069	1.169143861645736	0.0702	1.1108129081420366	0.9847863452472901	0.1076
65	2.170873786407767	0.8769203449535902	0.860895707780858	0.0301	0.7828376673424673	0.8511691304831603	0.0301	0.7482249646014477	0.49535810570322153	0.129	0.7220437750419721	0.1529958998620017	0.023	0.6831829751325813	0.04613723484178067	0.2179	0.6493063686853556	0.060916009420094556	0.1804	0.7402891657966123	0.10272897515161561	-0.0119	0.973521018369482	0.840379375852333	0.0301	0.9728095527264421	0.4793651252982235	0.129	0.9796741025354071	0.16110512723312137	0.023	0.9878809324099285	0.04416369319367021	0.2179	1.0446061908574216	0.057450474734568324	0.1804	0.9678115115042001	0.1166769169386644	-0.0119	0.9101009717119701	1.4658946378201465	0.0008	0.8687753485073398	1.7036128799215402	0.0655	0.7890064220030839	1.5771550187737364	0.1076	0.7756801835255162	1.3668968258533567	-0.01275	0.6055778201981622	1.2410066073454744	0.0702	0.39583417177430025	1.310195415318421	0.1076	1.0844424503148506	1.374329933766807	-0.01275	1.2488450068079604	1.1689255651536157	0.0702	1.109149636810565	0.9818895038474499	0.1076
66	2.204271844660194	0.8764023911444815	0.8610152905021201	0.0301	0.7826130700882042	0.8494897830715494	0.0301	0.7477088688463601	0.4951387462301402	0.129	0.721492445198501	0.15348604272172878	0.023	0.6867628551720381	0.04244052578103341	0.2179	0.6487452818749911	0.05769674545639527	0.1804	0.7396734789901845	0.10345245587734085	-0.0119	0.9730219298735084	0.8375600728677801	0.0301	0.9717682205246118	0.47986732973404245	0.129	0.9797237910482977	0.16299850672642116	0.023	0.9881921424276855	0.04553694773567383	0.2179	1.0448108916303502	0.05731864345773476	0.1804	0.9679993304654596	0.11881990257367062	-0.0119	0.9084488622043811	1.4652800032058313	0.0008	0.8676684041333371	1.7029741439243677	0.0655	0.7871953727321166	1.5772799547732064	0.1076	0.773579038144774	1.3671858161703203	-0.01275	0.6032432424092555	1.2440604297153037	0.0702	0.39354996048213087	1.313061381569026	0.1076	1.084346214815386	1.3743668429551756	-0.01275	1.2486375432753003	1.168943518675884	0.0702	1.1077351158928586	0.9804584594907148	0.1076
67	2.2376699029126215	0.8765645956294353	0.8610005575392159	0.0301	0.782259260840453	0.8466187407839959	0.0301	0.7470300199715485	0.49479528323634175	0.129	0.7223519987595713	0.15370177272277166	0.023	0.6890199679492307	0.04046900401769165	0.2179	0.6483050286610346	0.057720670087918494	0.1804	0.7394848603975949	0.1033232444352689	-0.0119	0.9726643305128918	0.8345508920000992	0.0301	0.9708809795301114	0.48098365575822966	0.129	0.9796065709507096	0.1620666917575036	0.023	0.988214573623641	0.04675341284138021	0.2179	1.044963553043633	0.05732814791575857	0.1804	0.9677447831951549	0.11697730280449957	-0.0119	0.9066072314723568	1.4654142145073492	0.0008	0.8667008036558347	1.7014763473470647	0.0655	0.7844328097914667	1.577300978692093	0.1076	0.7720744386184313	1.3671488543454449	-0.01275	0.6018071796134336	1.2463266029975604	0.0702	0.39185513051869353	1.3144544554781652	0.1076	1.0842857718864682	1.374577645363706	-0.01275	1.248684631745099	1.1689651084825181	0.0702	1.1069867230238737	0.9799478893720034	0.1076
68	2.2710679611650484	0.876534074085045	0.8605899292741015	0.0301	0.7817583063167389	0.8448611149489911	0.0301	0.7468664864508423	0.49439952153510874	0.129	0.723908865774201	0.15278006272195446	0.023	0.6890679738766704	0.04020142849536362	0.2179	0.6479641170717142	0.059522824670182835	0.1804	0.7396299220545506	0.10265670320272699	-0.0119	0.9721975184133909	0.8338016004828532	0.0301	0.9706595532205263	0.4814174883547873	0.129	0.9795863250419887	0.1599822827229648	0.023	0.9880347766932901	0.0475796752501466	0.2179	1.0448282537395754	0.0573696002950832	0.1804	0.9670420152131114	0.11286764739901481	-0.0119	0.9056358220388858	1.4659094369772718	0.0008	0.8663814265363691	1.7000185916893231	0.0655	0.7823351974954224	1.5767588043844998	0.1076	0.7722817057942946	1.3664804212030919	-0.01275	0.6004257001859901	1.2474788583421672	0.0702	0.39076926166536347	1.3162448514433747	0.1076	1.0839491553713196	1.3743180903236372	-0.01275	1.2483499318381472	1.1689701632077942	0.0702	1.1064157017696132	0.9792710863577144	0.1076
69	2.3044660194174758	0.8758440475884391	0.8595469627939041	0.0301	0.7815061806334398	0.8446993945591992	0.0301	0.7479565233915735	0.4936367765935032	0.129	0.7249832081359481	0.15223395028071207	0.023	0.6878388792549183	0.04104531974216687	0.2179	0.6474212526930271	0.059552686935554364	0.1804	0.7403858250985307	0.10241958118095514	-0.0119	0.9718231484710963	0.8340489602474667	0.0301	0.9717190704395952	0.48022836195221635	0.129	0.9803649734827176	0.1592735246805558	0.023	0.9876967476144491	0.047829359749636285	0.2179	1.0444599373466283	0.05711788821955891	0.1804	0.9666072067632228	0.11092334978031869	-0.0119	0.9053051201874097	1.4659838688265743	0.0008	0.866577618792776	1.6993688605747066	0.0655	0.7817204053732196	1.5754586423769357	0.1076	0.7725188986331013	1.3653327176487748	-0.01275	0.5983576421037641	1.2480497997183053	0.0702	0.39053984056009283	1.319685763749115	0.1076	1.0834173775881624	1.3731152581199173	-0.01275	1.247476196006455	1.1692826151012292	0.0702	1.1056228938035713	0.9788008094113406	0.1076
